<svg xmlns="http://www.w3.org/2000/svg" 
data-name="Layer 1" 
width="493.46111" 
height="480.84822" 
viewBox="0 0 493.46111 480.84822" 
xmlns:xlink="http://www.w3.org/1999/xlink">
<path d="M593.99391,286.91534a8.24621,8.24621,0,0,0,12.46576,1.5258l37.465,16.90274,7.22309-9.2133-44.64448-19.75029a8.23465,8.23465,0,0,0-12.50933,10.53505Z" 
transform="translate(-353.26944 -209.57589)" fill="#a0616a"/>
<path d="M754.77758,297.45515l3.71571,21.05629a7.15473,7.15473,0,0,1-6.485,8.37606l-63.13867,4.96514L614.65289,298.6371l8.86417-16.82718L687.944,302.21207Z"
transform="translate(-353.26944 -209.57589)" fill="#f50057"/>
<polygon points="393.531 180.687 370.531 229.687 459.008 220.726 440.539 173.687 393.531 180.687" fill="#a0616a"/>
<polygon points="414.101 462.32 405.712 462.249 401.999 429.138 414.379 429.243 414.101 462.32" fill="#a0616a"/>
<path d="M740.50017,685.235a3.75542,3.75542,0,0,0,3.71838,3.78333l16.67866.13917,2.91983-5.91846,1.07238,5.94865,6.29322.05707-1.58913-21.21672-2.18949-.14567-8.93065-.61562-2.88122-.19295-.05055,6.003-13.398,9.08746A3.74908,3.74908,0,0,0,740.50017,685.235Z"
transform="translate(-353.26944 -209.57589)" fill="#2f2e41"/>
<polygon points="321.266 462.358 313.268 459.825 319.447 427.085 331.251 430.822 321.266 462.358" fill="#a0616a"/><path d="M644.93215,676.78946a3.75542,3.75542,0,0,0,2.44267,4.70886l15.90163,5.03342,4.52988-4.79935-.72274,6.00117,5.99868,1.90358L677.797,668.89l-2.05006-.78254-8.3556-3.21239-2.69736-1.031-1.81209,5.72322-15.47666,4.74987A3.749,3.749,0,0,0,644.93215,676.78946Z"
transform="translate(-353.26944 -209.57589)" fill="#2f2e41"/>
<path d="M808.2479,416.5223,727.8008,431.263s-12.9034,9.652-9.4517,13.10867,3.98713,2.92126,1.71941,5.189-7.17111,5.29922-7.21941,7.28347-36.0483,90.98425-36.0483,90.98425,4-2,1,1-3,5.47886-3,5.47886l-14,94.52114,22.73653,1.33858,22.26347-86.17322,49.65929-80.50394s4.92732,71.789,5.134,76.56377,3.2067-1.22519.2067,4.77481-5,2-3,6-7.20473,85.43464-7.20473,85.43464h20.753L815.859,487.47179S831.695,439.21625,808.2479,416.5223Z" 
transform="translate(-353.26944 -209.57589)" fill="#2f2e41"/>
<path d="M784.549,281.5104l-32.22473-3.34828-8.34892,10.83925-9.72623,5.18025a24.27484,24.27484,0,0,0-12.8148,22.96237l11.36649,66.119s-9.601,21.61914-3,27-5.10356,18.70715,9,12,75,1,75,1l-13-37,9.71135-36.35753,1.06884-30.48533a25.826,25.826,0,0,0-18.33943-25.62683l-1.3579-.41034Z" 
transform="translate(-353.26944 -209.57589)" fill="#f50057"/>
<path d="M590.92033,689.23411a1.18647,1.18647,0,0,0,1.19006,1.19h253.29a1.19,1.19,0,0,0,0-2.38h-253.29A1.18651,1.18651,0,0,0,590.92033,689.23411Z" 
 transform="translate(-353.26944 -209.57589)" fill="#ccc"/>
 <circle cx="477.63839" cy="248.74781" r="9" fill="#f50057"/>
 <path d="M751.15566,251.61275c.52788-1.84758-3.11058,9.44634-1.35486,9.65024,7.99661.91738,18.97388,5.69318,24.54346,7.92119.25083-.02915.50167-.05826.74507-.09466.59753-.06555,1.18034-.1602,1.75572-.26939C789.8137,266.3664,794.8008,246.445,794.8008,246.263c0-.89557-2.14941-25.493-5.5354-25.857a24.9574,24.9574,0,0,0-2.67783-.14563h-8.40233a39.04837,39.04837,0,0,0-5.27448-.76451H772.896c-16.9153-1.28877-30.2528,9.02125-29.0061,21.56663.00738.01453.02215.02911.02949.04368.36151.5388.67871,1.04849.959,1.53631.27294.45871.50162.89556.70077,1.31059,1.5418,3.2037-2.42134,7.23495.20657,7.98739,3.49512,1.00076-9.19231,33.89354,4.64179,33.89354C743.69833,287.7472,749.69944,256.70953,751.15566,251.61275Z"
  transform="translate(-353.26944 -209.57589)" fill="#2f2e41"/>
  <circle cx="412.98633" cy="41.44344" r="19.89355" fill="#a0616a"/>
  <path d="M743.88989,242.14732c.332.17474.65656.3349.98853.49511.34669.16745.69343.33494,1.04013.48782,6.66139,3.02168,12.08341,3.35658,15.37354-.98293a18.39213,18.39213,0,0,1,1.51226-6.62584,10.64972,10.64972,0,0,0,1.75572,6.62584h6.62447c6.82366,4.52882,10.3277,5.00211,5.59172,19.87012-1.3205,4.14295-6.57092,28.25068-4.50539,31.82573.59753-.06555,6.95455-26.471,7.52993-26.58018,12.96865-2.45373,21.20866-23.81966,20.15377-25.0283a22.27543,22.27543,0,0,0-2.309-9.90958,22.79287,22.79287,0,0,0-8.66051-9.42175,40.16587,40.16587,0,0,0-6.91956-2.59936c-.059-.01458-.11067-.02915-.16966-.04368-.7303-.19661-1.47538-.37864-2.22046-.53155a40.842,40.842,0,0,0-4.66223-.70625c-.11067-.00729-.22129-.01458-.32458-.01458a3.51314,3.51314,0,0,0-1.77782.48787c-.00739,0-.00739.00724-.01477.00724a3.34732,3.34732,0,0,0-.98853.881,3.38566,3.38566,0,0,0-.72292,2.10425H763.8076q-.40941,0-.81882.02182a19.77972,19.77972,0,0,0-19.0694,18.596C743.89727,241.4556,743.88989,241.79779,743.88989,242.14732Z" 
  transform="translate(-353.26944 -209.57589)" fill="#2f2e41"/>
<circle cx="434.11663" cy="13.10599" r="13.10599" fill="#2f2e41"/>
<path d="M831.00893,462.03478a8.24622,8.24622,0,0,0-3.71676-11.99621l.06486-41.10135-11.36418-2.813.27989,48.81727a8.23465,8.23465,0,0,0,14.73619,7.09333Z" 
transform="translate(-353.26944 -209.57589)" fill="#a0616a"/>
<path d="M774.73294,311.053l17.68425-12.01836a7.15474,7.15474,0,0,1,10.298,2.48285l30.40367,55.55863.11616,81.31043-18.98188-1.18978-7.79226-67.12941Z" 
transform="translate(-353.26944 -209.57589)" fill="#f50057"/>

</svg>